<svg width="86" height="27" viewBox="0 0 86 27" fill="none" xmlns="http://www.w3.org/2000/svg">
<path d="M45.3988 6.70527C45.3988 7.66702 44.6284 8.44143 43.6724 8.44143C42.7163 8.44143 41.9465 7.66702 41.9465 6.70527C41.9465 5.74353 42.6901 4.96911 43.6724 4.96911C44.6555 4.99579 45.3988 5.77048 45.3988 6.70527ZM38.282 10.2048V10.6323C38.282 10.6323 37.4592 9.56329 35.7065 9.56329C32.8124 9.56329 30.5549 11.7806 30.5549 14.8524C30.5549 17.8977 32.7859 20.1414 35.7065 20.1414C37.4857 20.1414 38.282 19.0463 38.282 19.0463V19.5002C38.282 19.7139 38.4417 19.8738 38.654 19.8738H40.8045V9.82961H38.654C38.4417 9.83041 38.282 10.0177 38.282 10.2048ZM38.282 16.6422C37.8841 17.23 37.0873 17.7376 36.1315 17.7376C34.4322 17.7376 33.1307 16.6691 33.1307 14.8524C33.1307 13.0359 34.4322 11.9674 36.1315 11.9674C37.061 11.9674 37.9107 12.5016 38.282 13.0626V16.6422ZM42.398 9.83041H44.947V19.8746H42.398V9.83041ZM80.4765 9.56303C78.7239 9.56303 77.9005 10.632 77.9005 10.632V4.9958H75.3515V19.8746H77.5026C77.7151 19.8746 77.874 19.6875 77.874 19.5004V19.0465C77.874 19.0465 78.6974 20.1417 80.4495 20.1417C83.3441 20.1417 85.6011 17.8985 85.6011 14.8532C85.6011 11.8078 83.3441 9.56303 80.4765 9.56303ZM80.0516 17.7106C79.0687 17.7106 78.2989 17.2036 77.9005 16.6155V13.0359C78.2989 12.5016 79.1486 11.9407 80.0516 11.9407C81.7509 11.9407 83.0521 13.0092 83.0521 14.8257C83.0521 16.6422 81.7512 17.7106 80.0516 17.7106ZM74.0241 13.9178V19.9013H71.4745V14.2114C71.4745 12.5555 70.9435 11.8873 69.5104 11.8873C68.7406 11.8873 67.9437 12.2881 67.4384 12.876V19.8748H64.8899V9.83068H66.9073C67.1198 9.83068 67.2792 10.0177 67.2792 10.2048V10.6323C68.0228 9.85736 69.0051 9.56329 69.9874 9.56329C71.1029 9.56329 72.0324 9.88432 72.7759 10.5253C73.6784 11.2733 74.0241 12.2348 74.0241 13.9178ZM58.7019 9.56303C56.9498 9.56303 56.1264 10.632 56.1264 10.632V4.9958H53.5774V19.8746H55.728C55.9404 19.8746 56.0999 19.6875 56.0999 19.5004V19.0465C56.0999 19.0465 56.9233 20.1417 58.6754 20.1417C61.57 20.1417 63.827 17.8985 63.827 14.8532C63.8535 11.8075 61.5966 9.56303 58.7019 9.56303ZM58.277 17.7106C57.2947 17.7106 56.5248 17.2036 56.1264 16.6155V13.0359C56.5248 12.5016 57.3745 11.9407 58.277 11.9407C59.9768 11.9407 61.2777 13.0092 61.2777 14.8257C61.2777 16.6422 59.9768 17.7106 58.277 17.7106ZM51.3732 9.56303C52.1431 9.56303 52.5415 9.69698 52.5415 9.69698V12.0741C52.5415 12.0741 50.4172 11.3528 49.0898 12.8758V19.901H46.5402V9.83041H48.6913C48.9038 9.83041 49.0627 10.0175 49.0627 10.2045V10.632C49.5413 10.0708 50.5769 9.56303 51.3732 9.56303ZM24.8993 18.9662C24.7667 18.6457 24.6338 18.2985 24.5012 18.0045C24.2884 17.5238 24.0759 17.0694 23.8905 16.6422L23.864 16.6155C22.0315 12.6084 20.0669 8.54844 17.9953 4.54188L17.9158 4.38123C17.6979 3.96559 17.4856 3.54704 17.2788 3.12568C17.013 2.64454 16.7478 2.13751 16.3228 1.65637C15.4731 0.587882 14.2516 0 12.9507 0C11.6227 0 10.4279 0.587885 9.55199 1.60273C9.15355 2.08334 8.86122 2.5909 8.59595 3.07204C8.38871 3.49314 8.17639 3.91169 7.95903 4.32759L7.87918 4.48824C5.83446 8.4948 3.84306 12.555 2.01083 16.5618L1.98404 16.6149C1.79835 17.043 1.5856 17.4969 1.37311 17.9772C1.24048 18.2713 1.10784 18.5918 0.975205 18.939C0.62982 19.9271 0.523441 20.8622 0.656608 21.8242C0.948673 23.8278 2.2761 25.51 4.1086 26.2585C4.7991 26.5526 5.51613 26.686 6.25943 26.686C6.47191 26.686 6.73719 26.6594 6.94994 26.6324C7.8264 26.5257 8.72912 26.2321 9.60558 25.7246C10.6943 25.11 11.7299 24.2288 12.8981 22.9466C14.0664 24.2288 15.1285 25.11 16.1907 25.7246C17.0674 26.2321 17.9699 26.5257 18.8461 26.6324C19.0586 26.6596 19.3244 26.686 19.5368 26.686C20.2804 26.686 21.0237 26.5526 21.6874 26.2585C23.5464 25.51 24.8473 23.8011 25.1397 21.8242C25.3505 20.8894 25.2444 19.9549 24.8993 18.9662ZM12.9239 20.3552C11.4898 18.5387 10.5603 16.8292 10.242 15.3871C10.1093 14.7726 10.0825 14.2383 10.1624 13.7575C10.2152 13.3299 10.3749 12.9558 10.5873 12.6353C11.0919 11.9145 11.9416 11.4601 12.9241 11.4601C13.907 11.4601 14.7832 11.8876 15.2612 12.6353C15.4737 12.9558 15.6328 13.3302 15.6864 13.7575C15.7657 14.2386 15.7392 14.7993 15.6066 15.3871C15.2869 16.8025 14.3574 18.5123 12.9239 20.3552ZM23.5183 21.6107C23.3326 22.9997 22.4031 24.2022 21.1022 24.7364C20.465 25.0033 19.7743 25.0836 19.0843 25.0033C18.4206 24.9229 17.7563 24.7092 17.0664 24.3089C16.1103 23.7741 15.1545 22.9466 14.0391 21.7175C15.7915 19.5541 16.8536 17.577 17.2521 15.8144C17.438 14.9861 17.4648 14.2383 17.3847 13.5434C17.2788 12.8758 17.0396 12.2612 16.6679 11.7269C15.8442 10.5245 14.4632 9.83041 12.9236 9.83041C11.384 9.83041 10.003 10.5517 9.17981 11.7269C8.80816 12.2612 8.56889 12.8758 8.46278 13.5434C8.35667 14.2383 8.38293 15.0127 8.59541 15.8144C8.99359 17.577 10.0823 19.5805 11.8081 21.7442C10.7195 22.973 9.73688 23.8013 8.78084 24.3356C8.09034 24.7364 7.42689 24.9502 6.76318 25.0299C6.04642 25.1103 5.35565 25.0033 4.74499 24.7631C3.44409 24.2288 2.51458 23.0264 2.32889 21.6374C2.24931 20.9697 2.3021 20.3021 2.5679 19.5541C2.64722 19.2867 2.78038 19.0198 2.91302 18.6993C3.09897 18.2718 3.31093 17.8174 3.52368 17.3635L3.55047 17.3104C5.38244 13.3299 7.34731 9.26975 9.39203 5.31656L9.47161 5.15591C9.68436 4.75563 9.89685 4.32813 10.1091 3.92731C10.3215 3.49981 10.5603 3.09899 10.8526 2.75154C11.4102 2.11109 12.1535 1.76338 12.9769 1.76338C13.8003 1.76338 14.5436 2.11109 15.1012 2.75154C15.3936 3.09979 15.6323 3.50061 15.8448 3.92731C16.0575 4.32813 16.27 4.75563 16.482 5.15591L16.5618 5.31656C18.5754 9.28617 20.5141 13.2937 22.3771 17.337V17.3637C22.5899 17.7918 22.7756 18.2721 22.988 18.7001C23.1207 19.0201 23.2536 19.287 23.3332 19.5543C23.5451 20.2482 23.6247 20.9164 23.5183 21.6107Z" fill="#718087"/>
</svg>
