<svg width="76" height="17" viewBox="0 0 76 17" fill="none" xmlns="http://www.w3.org/2000/svg">
<path d="M12.7761 0.343018H15.6605V9.69536C15.6605 14.6159 12.5849 16.343 8.12283 16.343C3.67671 16.343 0.601074 14.6159 0.601074 9.69536V0.717763C0.601074 0.457071 0.728562 0.343018 0.983537 0.343018H3.86794V9.54872C3.86794 12.4978 5.14282 13.7198 8.12283 13.7198C11.1188 13.7198 12.3937 12.4978 12.3937 9.54872V0.717763C12.3937 0.457071 12.5212 0.343018 12.7761 0.343018ZM45.4289 2.90106V6.84404H52.7275C52.855 6.84404 52.9028 6.90921 52.855 7.03956L52.0582 9.05992C51.9785 9.23915 51.867 9.32061 51.6279 9.32061H47.3412C45.9388 9.32061 45.4289 9.76053 45.4289 10.7218V13.508H55.3091C55.4366 13.508 55.4844 13.5732 55.4366 13.7035L54.608 15.8053C54.5283 15.9846 54.4167 16.066 54.1777 16.066H43.3572C42.5285 16.066 42.2098 15.7728 42.2098 15.1373V1.43467C42.2098 0.668883 42.6241 0.343018 43.7078 0.343018H55.3091C55.4366 0.343018 55.4844 0.408191 55.4366 0.522244L54.608 2.64037C54.5283 2.8196 54.4167 2.90106 54.1777 2.90106H45.4289ZM36.2657 11.7157C36.2657 14.8603 34.0984 16.066 31.0546 16.066H22.9911C22.1465 16.066 21.8437 15.7728 21.8437 15.1373V1.43467C21.8437 0.668883 22.2421 0.343018 23.3417 0.343018H29.8913C32.7598 0.343018 35.5326 0.848109 35.5326 4.33487C35.5326 5.83385 35.0068 7.10473 33.7478 7.77275C35.4848 8.24526 36.2657 9.842 36.2657 11.7157ZM25.0149 6.89292H30.1304C31.8196 6.89292 32.2976 6.22489 32.2976 4.85626C32.2976 3.48762 31.8196 2.83589 30.1304 2.83589H25.0149V6.89292ZM33.0307 11.4224C33.0307 9.97235 32.5367 9.25544 30.72 9.25544H26.9432C25.5408 9.25544 25.0149 9.69536 25.0149 10.6567V13.5732H30.72C32.5367 13.5732 33.0307 12.8563 33.0307 11.4224ZM75.4203 16.066H72.4881C72.249 16.066 72.1534 15.9683 72.0578 15.8053L68.9503 10.0701H66.0978C64.6954 10.0701 64.1695 10.51 64.1695 11.4713V16.066H61.3648C61.1098 16.066 60.9823 15.9357 60.9823 15.6913V1.43467C60.9823 0.668883 61.3967 0.343018 62.4803 0.343018H69.0618C72.9024 0.343018 75.2131 1.36949 75.2131 5.18212C75.2131 8.13121 73.8267 9.28803 72.1056 9.74424L75.5637 15.789C75.6274 15.8868 75.6274 16.066 75.4203 16.066ZM71.9781 5.24729C71.9781 3.65055 71.5479 2.86848 69.5399 2.86848H64.1695V7.62611H69.5399C71.5479 7.62611 71.9781 6.86033 71.9781 5.24729Z" fill="#718087"/>
</svg>
